# xmcd
#
# Track frame offsets: 
#        150
#        12780
#        34405
#        48547
#        64872
#        91267
#        119270
#        135615
#        154400
#        171922
#
# Disc length: 2654 seconds
#
# Revision: 0
# Processed by: cddbd v1.5.2PL0 Copyright (c) Steve Scherf et al.
# Submitted via: ExactAudioCopy v0.99pb3
#
DISCID=860a5c0a
DTITLE=Michael Coleman - Back Breaking Blues - Chicago Blues Session V
DTITLE=ol. 18
DYEAR=1990
DGENRE=Blues
TTITLE0=Breakfast In My Bed
TTITLE1=House Ain't No Home
TTITLE2=Big Fat Mama
TTITLE3=You Don't Have To Go
TTITLE4=Dreamer
TTITLE5=Mustang Sally
TTITLE6=Let Me Tell You 'Bout
TTITLE7=Call My Job
TTITLE8=Woman Love Woman
TTITLE9=Go To Move
EXTD=
EXTT0=
EXTT1=
EXTT2=
EXTT3=
EXTT4=
EXTT5=
EXTT6=
EXTT7=
EXTT8=
EXTT9=
PLAYORDER=
